<?xml version="1.0" encoding="UTF-8"?>
<svg width="752pt" height="752pt" version="1.1" viewBox="0 0 752 752" xmlns="http://www.w3.org/2000/svg">
 <defs>
  <clipPath id="a">
   <path d="m170 139.21h412v473.58h-412z"/>
  </clipPath>
 </defs>
 <g clip-path="url(#a)">
  <path d="m529.7 596.61 43.352 2.5547v-0.003906c1.2188-0.074218 2.4414-0.074218 3.6602 0 2.8906 0.33594 4.8164 1.7344 4.8164 4.8164 0 3.082-2.3125 4.5273-5.2969 4.4297-6.9844 0-14.016-0.625-21.051-0.96484l-37.957-1.832c-0.72266 0-1.4453 0-2.6992-0.38672l0.003906-6.1602v-72.25c0-4.2383-1.1562-5.4414-5.4414-5.3945-33.43 0.48047-66.906 0.72266-100.38 1.0117h-2.3125l-0.003907 82.656h-21.914c-0.67578-27.551-1.3008-55.391-1.9766-83.137h-42.723v85.062l-49.469 1.3984c0-1.3477-0.28906-2.2148-0.28906-3.082-0.33594-26.25-0.72266-52.551-0.86719-78.801 0-3.7578-1.0117-4.8164-4.8164-4.8164h-37.859v88.77c-10.5 0-20.086-0.28906-29.621 0-13.293 0.48047-26.539 1.3984-39.836 2.0703-0.91406 0-2.0703 0.38672-2.6484 0-1.5898-1.1562-4.1914-2.7461-4.0938-3.9492h-0.003906c0.32422-2.1367 1.7266-3.9609 3.7109-4.8164 7.5117-0.86719 15.125-1.5898 22.926-1.5898 9.2969-0.57812 18.594-0.86719 28.469-1.3008v-380.38l-4.8164-0.57812-0.48047-5.6367h33.719c4.8164 0 6.6953-0.86719 7.418-6.1641 1.7812-13.148 4.8164-26.156 6.9375-39.258 0.57812-3.7578 2.457-4.3828 5.5391-4.3359l185.87 0.003906v-13.582c4.8164-0.76953 7.1758 0 6.6953 5.1523-0.14453 2.7422-0.14453 5.4922 0 8.2383 4.8164 1.1562 4.3828-2.0234 4.2852-4.8164 0-4.4297-0.625-8.8164-0.67578-13.246h0.003906c0.12891-2.4258 0.41797-4.8398 0.86719-7.2266h6.6953v25.625h13.055c2.457 0 3.3711 0.76953 3.9023 3.1797 3.418 15.27 7.0312 30.539 10.645 46.191h29.527v5.4414l-4.8164 0.57812zm-285.73-89.641h3.9023 263.14c1.5898 0 3.9961-0.625 4.8164-1.6875 3.3242-6.1641 0.67578-10.5-6.1641-10.547l-257.65-1.1562c-8.2852 0-8.2852 0-7.8047 8.4297-0.19141 1.7812-0.23828 3.2266-0.23828 4.9609zm171.67-248.35c-3.1797 0-5.7305 0.53125-8.2852 0.48047-15.414-0.24219-30.828-0.38672-46.191-1.0586-4.3359 0-5.2031 1.0586-5.1523 4.8164 0.38672 27.602 0.72266 55.199 0.82031 82.801v137.04c0 3.707 1.3008 4.8164 4.8164 4.8164h50.816c3.1328 0 4.2383-1.0117 4.1914-4.2852-0.38672-32.801-0.76953-65.605-0.91406-98.406v-122.34zm-84.293 9.3438c-0.48437-0.20313-0.98437-0.36328-1.4961-0.48047h-16.039c-10.066 0-10.066 0-10.066 10.113v19.266h24.082l0.003907 0.003906c1.5078-0.37109 2.7461-1.4492 3.3203-2.8906 0.33984-8.8633 0.19531-17.387 0.19531-26.012zm-55.922-0.52734h-24.566c-1.0117 0-2.8906 1.543-2.8906 2.4102v26.781h24.711v-0.003906c1.3164-0.30859 2.3633-1.3008 2.7461-2.6016 0.09375-8.7188 0-17.387 0-26.586zm0.91406 176.05h-24.082c-1.1562 0-3.2734 1.543-3.3242 2.4102-0.24219 8.8164 0 17.629 0 26.781h24.758v-0.003906c1.3086-0.33203 2.3398-1.3438 2.6953-2.6484 0.050781-8.668-0.046875-17.148-0.046875-26.539zm212.66 30.199h24.082c1.2031 0 3.3242-1.5898 3.3242-2.5039 0.28906-8.7656 0-17.582 0-26.684h-24.855c-1.2773 0.39844-2.2734 1.4102-2.6484 2.6953 0 8.6719 0.09375 17.34 0.09375 26.492zm-28.324-29.285h-19.266c-9.6328 0-8.1875-1.2031-8.2383 8.2852v21h24.082c2.5547 0 3.5625-1.0117 3.5156-3.5156-0.14063-8.332-0.09375-16.762-0.09375-25.77zm-128.41-0.91406h-24.469c-1.0586 0-2.9375 1.4922-2.9883 2.3594v26.828h24.613c1.3242-0.28516 2.3906-1.2578 2.7969-2.5508 0.14453-8.7188 0.046875-17.246 0.046875-26.637zm183.42-56.887h-19.266c-9.6328 0-8.1406-1.2031-8.2383 8.2383v21.051h24.082c2.5547 0 3.5625-0.96484 3.5156-3.5156-0.14453-8.3359-0.09375-16.719-0.09375-25.773zm-83.523 29.336h24.613c0.96484 0 2.7461-1.3477 2.793-2.1211v-27.117h-24.371c-1.1094 0-2.9883 2.0234-3.0352 3.1797-0.14453 8.4766 0 16.855 0 26.059zm-100.81-30.25h-19.266c-9.6328 0-8.1875-1.2031-8.2852 8.2383v21.051h24.082c2.5547 0 3.5625-0.96484 3.5625-3.5156-0.09375-8.3359-0.09375-16.719-0.09375-25.773zm-83.523 29.332h24.711c0.96484 0 2.6992-1.3477 2.6992-2.1211v-27.07h-24.469c-1.0586 0-2.8906 2.0703-2.9375 3.2266-0.10156 8.4336-0.003906 16.812-0.003906 25.965zm241.17-59.629h24.711c0.96484 0 2.6992-1.3984 2.6992-2.168v-27.023h-24.082c-2.5039 0-3.6133 0.82031-3.5625 3.4688 0.28516 8.2383 0.23438 16.617 0.23438 25.723zm-29.234-87.039h-19.266c-9.6328 0-8.1875-1.2031-8.2383 8.2852v21h24.082c2.5547 0 3.6133-1.0117 3.5625-3.5156-0.19141-8.332-0.14062-16.715-0.14062-25.77zm-26.832 87.039h24.371c2.793 0 3.2734-1.543 3.2266-3.8047v-15.125l0.003906-10.355h-24.082c-1.1562 0-3.2266 1.8789-3.2266 2.9375-0.29297 8.668-0.29297 17.195-0.29297 26.348zm-128.41-0.91406h25.047c0.86719 0 2.4102-1.3477 2.4102-2.0703v-27.117h-24.371v-0.003906c-1.4102 0.31641-2.5586 1.3359-3.0352 2.6992 0 8.7148 0.09375 17.387 0.09375 26.488zm-28.324-29.285h-24.758c-0.96484 0-2.6484 1.3984-2.6992 2.168v27.023h24.422l0.003906-0.003906c1.4922-0.48047 2.625-1.7031 2.9883-3.2266 0.33594-8.4297 0.19141-16.859 0.19141-25.965zm239.34-56.836h-24.566c-1.0117 0-2.8906 1.543-2.8906 2.3594v26.828h24.711l0.003906-0.003906c1.3164-0.30859 2.3633-1.3008 2.7461-2.5977 0.19141-8.7188 0.14453-17.391 0.14453-26.59zm-121.86-48.168-1.4922 33.141h10.402l1.9766-33.141zm-10.98 0v-0.003906c-1.8125 0.12891-3.6289 0.12891-5.4414 0-4.4297-0.625-6.0195 1.2539-5.875 5.5859 0.14453 4.3359-0.53125 7.2734-0.625 10.934v16.953h9.875zm-57.801 33.719h10.113l0.003907-33.914c-2.3398-0.25-4.6953-0.25-7.0312 0-1.1562 0.24219-2.9375 1.7812-2.9375 2.7461-0.19531 10.258-0.097657 20.375-0.097657 30.68zm-11.801 0.24219v-0.007812c1.2852-0.097657 2.5703-0.097657 3.8555 0 4.8164 0.76953 6.4531-1.0586 6.0703-5.7305-0.28906-3.8047 0-7.6094 0-11.414l-0.003906-16.668h-9.6328zm-15.027 0v-33.723h-9.2969v33.188zm2.6484-33.234v32.996h9.6328v-33.535zm48.168 0v33.141h9.3438v-33.871zm-11.367 0v33.141h8.9102v-33.824zm-91.52 33.719v-33.719h-9.6328c0.67578 11.414 1.3477 22.398 2.0234 33.719zm122.78-0.67578 0.003906-33.629h-8.0938v33.09zm-92.676 0.28906v-33.234h-9.6328c0.48047 11.223 0.96484 22.109 1.4453 33.234zm138.72-0.33594c-0.48047-11.223-0.96484-22.207-1.4453-33.141-6.9844-0.625-6.8867-0.57812-7.1289 5.6367-0.33594 9.1055-0.91406 18.16-1.3477 27.504zm66.812-64.168v-11.465c0-2.168-0.53125-3.418-3.0352-3.418h-21.918 0.003906c-1.5781 0.42578-2.8281 1.625-3.3242 3.1797-0.28906 7.6094 0 15.27 0 22.879 0.40234 1.3945 1.4922 2.4844 2.8906 2.8906 7.418 0.24219 14.934 0.24219 22.352 0 1.0586 0 2.7461-2.0234 2.8906-3.2734l-0.003907-0.003906c0.23438-3.5898 0.28516-7.1914 0.14453-10.789zm45.422 63.727v-33.43h-7.418v33.43zm-248.25-33.094v33.043c6.4062 0.72266 7.2266 0.57813 7.2734-2.168v-30.875zm-29.816 0v33.094c7.2734 1.6875 7.7539 1.3008 7.8516-5.3945v-14.16-13.539zm147.59-17.965h24.469c1.0781 0.10156 2.1484-0.30078 2.8906-1.0898 0.74609-0.79297 1.082-1.8828 0.91406-2.957v-19.266c0-2.168-0.48047-3.418-3.0352-3.3711h-22.445c-1.2773 0.34766-2.2773 1.332-2.6484 2.6016-0.19531 7.8008-0.14453 15.555-0.14453 24.082zm96.816 17.582v33.43l6.9844-0.003907v-33.426zm17.004 0v33.379h6.6953l-0.003907-33.379zm-149.32-18.496v-23.602c0-1.0586-1.4922-2.9883-2.3125-3.0352-6.082-0.3125-12.176-0.3125-18.254 0-1.7031 0.4375-3.0312 1.7656-3.4688 3.4688-0.33984 6.5469-0.33984 13.105 0 19.652 0 1.1562 1.6875 3.2266 2.6484 3.2266 6.9844 0.38281 14.113 0.28906 21.48 0.28906zm-124.9 52.598-1.3984-33.719h-6.0664v33.719h4.8164c0.88281 0.050781 1.7656 0.050781 2.6484 0zm155.58-33.719c-6.5508-0.91406-6.9844-0.625-6.9844 5.1562-0.48047 9.25-0.91406 18.449-1.3984 27.793h6.8398c0.33594-11.078 0.91406-22.012 1.543-32.852zm-91.52-44.891h-21.965c-1.0117 0-2.6992 2.168-2.7461 3.418-0.28906 6.4062 0 12.812 0 19.266 0 2.6016 0.72266 3.9961 3.6133 3.9023h17.82c2.5547 0 3.5156-1.1094 3.5156-3.5625-0.28516-7.2734-0.28516-14.738-0.28516-22.926zm125.23 44.555v33.285h7.0312l-1.3984-33.285zm23.266 33.43c0.48047-11.367 0.96484-22.352 1.4922-33.379l-7.418-0.003907v33.379zm-189.3-33.141v33.719h6.3594v-33.719zm180.62 33.141v-33.332h-6.2617v33.332zm36.078-33.719v33.719h6.1641v-33.719zm14.738 33.719v-33.332h-5.6328v33.379zm-74.512-33.383v33.234h5.875v-33.234zm41.23 33.43v-34.777c-2.3125 1.3477-5.0586 2.168-5.0586 3.082-0.28906 10.547 0 21.098 0 31.695zm2.6016-33.43v33.234h5.1055v-33.473zm8.0938 0v33.43h4.8164l-0.003906-33.574zm34.922 0v33.719h4.8164l-0.003906-33.812z"/>
 </g>
 <path d="m286.51 608.02-37.234 1.543v-84.727h37.234z"/>
 <path d="m342.57 524.64h37.375c0.625 26.492 1.2539 53.371 1.9258 81.258h-39.301z"/>
 <path d="m409.82 570.6-0.57812-10.355h102.64v10.355z"/>
 <path d="m511.98 547.43v9.6328h-102.36v-9.6328z"/>
 <path d="m512.17 584.47v10.355h-101.73v-8.6719z"/>
 <path d="m511.93 581.72-101.49 1.7812v-9.6328h101.49z"/>
 <path d="m512.07 525.13v8.043h-102.6v-8.043z"/>
 <path d="m511.98 536.06v7.9492l-102.5-0.003907v-7.9453z"/>
 <path d="m512.17 598.25v6.9375l-101.73-0.003906v-6.9336z"/>
 <path d="m513.62 497.29v7.2734h-267.33v-7.2734z"/>
 <path d="m359.05 260.69h54.863v224.17h-54.863z"/>
 <path d="m478.5 201.2h-22.105v-23.219h22.109z"/>
 <path d="m421.76 199.42h-22.207v-20.715h22.207z"/>
 <path d="m339.73 198.27v-20.52h18.641v20.52z"/>
 <path d="m278.41 178.32h18.738v21h-18.738z"/>
</svg>
